<svg xmlns="http://www.w3.org/2000/svg" xmlns:xlink="http://www.w3.org/1999/xlink" version="1.1" x="0px" y="0px" viewBox="0 0 100 125" style="enable-background:new 0 0 100 100;" xml:space="preserve"><path d="M72.47998,89.06L55.28003,46.98999v-8.26001L80.47998,24.63l-6.94995-12.42999L64.72998,17.12  L64.06,15.89996L68,13.70001l-2.44-4.37006L46,20.26996L48.44,24.63l5.27002-2.95001l0.69,1.21997L15.5,44.65997l6.95001,12.42999  l23.15997-12.94995v2.33997L28.25,88.96997L25.40002,93h8.62L33.19,90.28998v-0.01001L47.90997,54.25v33.62L45.85999,93H54.81  l-1.83002-4.58002V54.76001l14.51001,35.5L66.65002,93h8.62l-2.79004-3.92999V89.06z M72.76001,14.91998l5,8.94l-0.89001,0.5  l-5-8.94L72.76001,14.91998z M52.73999,19.94l-3.52997,1.96997l-0.49005-0.87L64.78998,12.06l0.49005,0.87l-2.20001,1.22998  L52.73999,19.94z M62.96997,18.06L56.12,21.89001l-0.65997-1.18005L62.31,16.88L62.96997,18.06z M23.21002,54.37l-4.99005-8.94  l0.88-0.5l5.01001,8.94L23.21002,54.37z M25.85999,52.89001l-5-8.93005l49.25-27.56l5.01001,8.94L55.28003,36.42999v-0.94  C55.28003,33.01996,53.25,31,50.77002,31H50.13c-2.48999,0-4.52002,2.01996-4.52002,4.48999v6.34998L25.85999,52.89001z   M47.60999,46.76996v-1.09998h5.67004v1.09998H47.60999z M50.97998,48.76996v38.90002h-1.07001V48.76996H50.97998z   M53.28003,43.70001h-5.67004v-8.21002c0-1.37,1.13-2.48999,2.52002-2.48999h0.64001c1.38,0,2.51001,1.12,2.51001,2.48999V43.70001z   M29.27002,91l0.57001-0.81l0.25-0.35004L31.04999,90.13l0.19,0.63995L31.31,91H29.27002z M47.90997,48.96997l-16.06995,39.31  l-1.03003-0.31l16.03003-39.20001h1.14996L47.90997,48.96997z M48.81,91l0.03003-0.07001l0.5-1.26001h1.97998l0.51001,1.26001  L51.85999,91H48.81z M52.97998,49.45996l-0.27997-0.69h1.14001l16.01996,39.19l-1.01996,0.32001L52.97998,49.45996z M69.34998,91  l0.07001-0.22003L69.62,90.13l0.96002-0.29004l0.25,0.36005L71.40002,91H69.34998z"/><text x="0" y="115" fill="#000000" font-size="5px" font-weight="bold" font-family="'Helvetica Neue', Helvetica, Arial-Unicode, Arial, Sans-serif">Created by Marvdrock</text><text x="0" y="120" fill="#000000" font-size="5px" font-weight="bold" font-family="'Helvetica Neue', Helvetica, Arial-Unicode, Arial, Sans-serif">from the Noun Project</text></svg>