<svg xmlns="http://www.w3.org/2000/svg" xmlns:xlink="http://www.w3.org/1999/xlink" version="1.1" x="0px" y="0px" viewBox="0 0 100 125" style="enable-background:new 0 0 100 100;" xml:space="preserve"><path d="M72.47998,89.06L55.28003,46.98999V38.06l11.91998-6.66998L68.03003,32.88l20.12994-9.40002L79.53998,8.06  L60.98999,20.28998l0.73999,1.32001L33.15997,37.58997l0.75,1.35004l-13.37994,7.47998l0.75,1.34003L13.25,52.23999l2.47998,4.42999  L23.75,52.17999l0.75,1.33002l13.38-7.48004L38.63,47.37l6.97998-3.90002v3.01001L28.25,88.96997L25.40002,93h8.62L33.19,90.27997  L47.90997,54.25v33.62L45.85999,93H54.81l-1.83002-4.58002V54.76001l14.51001,35.5L66.65002,93h8.62l-2.79004-3.92999V89.06z   M78.84003,10.90997L85.37,22.57001L68.94,30.25l-5.22998-9.35004L78.84003,10.90997z M16.48999,53.94l-0.52002-0.92999  L22.26001,49.5l0.52002,0.92999L16.48999,53.94z M36.90002,44.27997l-11.63,6.51001L23.25,47.19h0.01001l11.63-6.51001  l2.01996,3.59998H36.90002z M39.40002,44.64996l-3.51001-6.28998l11.51996-6.44c0.34003-0.27002,0.71002-0.47998,1.12006-0.63  l14.17999-7.92999l3.50995,6.28998l-10.93994,6.12v-0.27997C55.28003,33.01996,53.25,31,50.77002,31H50.13  c-0.57001,0-1.09998,0.09998-1.59998,0.28998l-1.12006,0.63c-1.09998,0.82001-1.79999,2.10999-1.79999,3.57001v5.69  L39.40002,44.64996z M47.60999,46.76996V45h5.67004v1.76996H47.60999z M50.97998,48.76996v38.90002h-1.07001V48.76996H50.97998z   M47.60999,43v-7.51001c0-1.37,1.13-2.48999,2.52002-2.48999h0.64001c1.38,0,2.51001,1.12,2.51001,2.48999V43H47.60999z   M29.27002,91l0.57001-0.81l0.25-0.35004L31.04999,90.13l0.19,0.63995L31.31,91H29.27002z M47.90997,48.96997l-16.06995,39.31  l-1.03003-0.31l16.03003-39.20001h1.14996L47.90997,48.96997z M48.81,91l0.03003-0.07001l0.5-1.26001h1.97998l0.51001,1.26001  L51.85999,91H48.81z M52.97998,49.45996l-0.27997-0.69h1.14001l16.01996,39.19l-1.01996,0.32001L52.97998,49.45996z M69.34998,91  l0.07001-0.22003L69.62,90.13l0.96002-0.29004l0.25,0.36005L71.40002,91H69.34998z"/><text x="0" y="115" fill="#000000" font-size="5px" font-weight="bold" font-family="'Helvetica Neue', Helvetica, Arial-Unicode, Arial, Sans-serif">Created by Marvdrock</text><text x="0" y="120" fill="#000000" font-size="5px" font-weight="bold" font-family="'Helvetica Neue', Helvetica, Arial-Unicode, Arial, Sans-serif">from the Noun Project</text></svg>